<svg width="100%" height="100%" id="svg" viewBox="0 0 1440 700" xmlns="http://www.w3.org/2000/svg" class="transition duration-300 ease-in-out delay-150"><defs><linearGradient id="gradient" x1="0%" y1="50%" x2="100%" y2="50%"><stop offset="5%" stop-color="#002bdc66"></stop><stop offset="95%" stop-color="#32ded466"></stop></linearGradient></defs><path d="M 0,700 C 0,700 0,175 0,175 C 108.58373205741626,160.57894736842104 217.1674641148325,146.15789473684208 305,163 C 392.8325358851675,179.84210526315792 459.9138755980862,227.94736842105266 545,223 C 630.0861244019138,218.05263157894734 733.1770334928229,160.05263157894734 835,149 C 936.8229665071771,137.94736842105266 1037.377990430622,173.84210526315792 1138,186 C 1238.622009569378,198.15789473684208 1339.311004784689,186.57894736842104 1440,175 C 1440,175 1440,700 1440,700 Z" stroke="none" stroke-width="0" fill="url(#gradient)" class="transition-all duration-300 ease-in-out delay-150 path-0" transform="rotate(-180 720 350)"></path><defs><linearGradient id="gradient" x1="0%" y1="50%" x2="100%" y2="50%"><stop offset="5%" stop-color="#002bdc88"></stop><stop offset="95%" stop-color="#32ded488"></stop></linearGradient></defs><path d="M 0,700 C 0,700 0,350 0,350 C 111.77990430622009,371.85645933014354 223.55980861244018,393.7129186602871 316,410 C 408.4401913875598,426.2870813397129 481.5406698564592,437.00478468899524 567,402 C 652.4593301435408,366.99521531100476 750.2775119617226,286.267942583732 847,285 C 943.7224880382774,283.732057416268 1039.3492822966507,361.9234449760766 1138,386 C 1236.6507177033493,410.0765550239234 1338.3253588516745,380.0382775119617 1440,350 C 1440,350 1440,700 1440,700 Z" stroke="none" stroke-width="0" fill="url(#gradient)" class="transition-all duration-300 ease-in-out delay-150 path-1" transform="rotate(-180 720 350)"></path><defs><linearGradient id="gradient" x1="0%" y1="50%" x2="100%" y2="50%"><stop offset="5%" stop-color="#002bdcff"></stop><stop offset="95%" stop-color="#32ded4ff"></stop></linearGradient></defs><path d="M 0,700 C 0,700 0,525 0,525 C 117.76076555023923,522.4258373205741 235.52153110047846,519.8516746411484 338,526 C 440.47846889952154,532.1483253588516 527.6746411483253,547.0191387559809 627,535 C 726.3253588516747,522.9808612440191 837.77990430622,484.07177033492826 916,480 C 994.22009569378,475.92822966507174 1039.2057416267942,506.6937799043062 1121,520 C 1202.7942583732058,533.3062200956938 1321.3971291866028,529.1531100478469 1440,525 C 1440,525 1440,700 1440,700 Z" stroke="none" stroke-width="0" fill="url(#gradient)" class="transition-all duration-300 ease-in-out delay-150 path-2" transform="rotate(-180 720 350)"></path></svg>